<?xml version="1.0" encoding="UTF-8" standalone="no"?>
<!-- Created with Inkscape (http://www.inkscape.org/) -->

<svg
   xmlns:dc="http://purl.org/dc/elements/1.1/"
   xmlns:cc="http://creativecommons.org/ns#"
   xmlns:rdf="http://www.w3.org/1999/02/22-rdf-syntax-ns#"
   xmlns:svg="http://www.w3.org/2000/svg"
   xmlns="http://www.w3.org/2000/svg"
   xmlns:sodipodi="http://sodipodi.sourceforge.net/DTD/sodipodi-0.dtd"
   xmlns:inkscape="http://www.inkscape.org/namespaces/inkscape"
   width="210mm"
   height="297mm"
   viewBox="0 0 210 297"
   version="1.1"
   id="svg8"
   inkscape:version="0.92.3 (2405546, 2018-03-11)"
   sodipodi:docname="protoTypes.svg">
  <defs
     id="defs2" />
  <sodipodi:namedview
     id="base"
     pagecolor="#ffffff"
     bordercolor="#666666"
     borderopacity="1.0"
     inkscape:pageopacity="0.0"
     inkscape:pageshadow="2"
     inkscape:zoom="0.98994949"
     inkscape:cx="-597.21756"
     inkscape:cy="405.94408"
     inkscape:document-units="mm"
     inkscape:current-layer="layer1"
     showgrid="false"
     inkscape:window-width="1600"
     inkscape:window-height="837"
     inkscape:window-x="1272"
     inkscape:window-y="-8"
     inkscape:window-maximized="1" />
  <metadata
     id="metadata5">
    <rdf:RDF>
      <cc:Work
         rdf:about="">
        <dc:format>image/svg+xml</dc:format>
        <dc:type
           rdf:resource="http://purl.org/dc/dcmitype/StillImage" />
        <dc:title></dc:title>
      </cc:Work>
    </rdf:RDF>
  </metadata>
  <g
     inkscape:label="Layer 1"
     inkscape:groupmode="layer"
     id="layer1">
    <rect
       style="fill:#000080;stroke:#000000;stroke-width:2"
       id="rect12"
       width="56.69643"
       height="76.351196"
       x="-241.90475"
       y="144.29762"
       inkscape:export-filename="C:\Users\Neil\Documents\GameJamtheGame\Assets\Prefabs\player1.png"
       inkscape:export-xdpi="96"
       inkscape:export-ydpi="96" />
    <ellipse
       style="fill:#ffffff;stroke:#000000;stroke-width:2"
       id="path822"
       cx="-225.17456"
       cy="166.83975"
       rx="8.6862593"
       ry="13.898015"
       inkscape:export-filename="C:\Users\Neil\Documents\GameJamtheGame\Assets\Prefabs\player1.png"
       inkscape:export-xdpi="96"
       inkscape:export-ydpi="96" />
    <ellipse
       ry="8.014287"
       rx="5.4752269"
       cy="169.91336"
       cx="-201.78847"
       id="ellipse824"
       style="fill:#ffffff;stroke:#000000;stroke-width:1.20578742"
       inkscape:export-filename="C:\Users\Neil\Documents\GameJamtheGame\Assets\Prefabs\player1.png"
       inkscape:export-xdpi="96"
       inkscape:export-ydpi="96" />
    <ellipse
       ry="1.8909937"
       rx="2.0246284"
       cy="172.98695"
       cx="-225.17456"
       id="ellipse826"
       style="fill:#000000;stroke:#000000;stroke-width:0.35616803"
       inkscape:export-filename="C:\Users\Neil\Documents\GameJamtheGame\Assets\Prefabs\player1.png"
       inkscape:export-xdpi="96"
       inkscape:export-ydpi="96" />
    <ellipse
       style="fill:#000000;stroke:#000000;stroke-width:0.35616803"
       id="ellipse828"
       cx="-201.38757"
       cy="172.45241"
       rx="2.0246284"
       ry="1.8909937"
       inkscape:export-filename="C:\Users\Neil\Documents\GameJamtheGame\Assets\Prefabs\player1.png"
       inkscape:export-xdpi="96"
       inkscape:export-ydpi="96" />
    <path
       style="fill:#000000;stroke:#000000;stroke-width:2"
       id="path830"
       d="m -228.28002,203.06333 c 0.83843,0.7435 1.87674,1.21711 2.85993,1.7363 1.03564,0.52873 2.1382,0.89763 3.21789,1.32004 0.69779,0.25222 1.399,0.49588 2.13177,0.62127 0.94313,0.16564 1.89215,0.26445 2.84798,0.32304 1.19696,0.0584 2.39557,0.0613 3.59365,0.0643 1.07798,0.005 2.1559,-0.003 3.23383,-0.013 0.81346,-0.022 1.42943,-0.27695 2.10997,-0.69209 -5.83979,3.37053 -2.76648,1.71947 -1.58135,0.6964 0.53772,-0.43365 1.07024,-0.87192 1.55962,-1.35986 0.46634,-0.46612 0.91917,-0.94207 1.3137,-1.47099 0.38325,-0.54619 0.83043,-1.04175 1.24101,-1.56645 0.35524,-0.48904 0.68384,-0.997 1.02165,-1.49825 0.41961,-0.6407 0.80487,-1.30148 1.14207,-1.98897 0.27594,-0.70068 0.66868,-1.33466 1.08723,-1.9565 0.4847,-0.71475 0.97105,-1.42776 1.464,-2.13681 0.42223,-0.549 0.75773,-1.15439 1.13937,-1.72962 0.39771,-0.56763 0.9072,-1.03401 1.44458,-1.46529 0,0 3.65311,-1.4513 3.65311,-1.4513 v 0 c -0.55209,0.38031 -1.05364,0.82256 -1.47454,1.34684 -0.43018,0.55018 -0.72108,1.19198 -1.16956,1.73227 -0.48091,0.71547 -0.99424,1.40844 -1.45825,2.1357 -0.4234,0.60144 -0.84747,1.21028 -1.10934,1.90312 -0.33926,0.69277 -0.69185,1.37333 -1.10843,2.02457 -0.32132,0.52029 -0.68014,1.01365 -1.01689,1.52297 -0.37985,0.54569 -0.83679,1.0277 -1.24221,1.55309 -0.36149,0.56697 -0.81227,1.0579 -1.28666,1.53261 -0.48192,0.50608 -0.99053,0.97972 -1.55498,1.39351 -0.17646,0.15312 -0.33918,0.32179 -0.51816,0.47194 -1.32802,1.1141 -3.70758,1.52449 -4.60228,2.78005 -0.69884,0.36101 -1.43426,0.53961 -2.22559,0.5281 -1.06754,-0.007 -2.13508,-0.0124 -3.20266,-0.0119 -1.20366,-0.006 -2.40845,-0.009 -3.61039,-0.0806 -0.97751,-0.0636 -1.95223,-0.16337 -2.91707,-0.33666 -0.7377,-0.16209 -1.4526,-0.4115 -2.15269,-0.6937 -1.07984,-0.43056 -2.16786,-0.84478 -3.20215,-1.38006 -1.02187,-0.53077 -2.06673,-1.0461 -2.98654,-1.74449 0,0 3.35838,-2.1095 3.35838,-2.1095 z"
       inkscape:connector-curvature="0"
       inkscape:export-filename="C:\Users\Neil\Documents\GameJamtheGame\Assets\Prefabs\player1.png"
       inkscape:export-xdpi="96"
       inkscape:export-ydpi="96" />
  </g>
</svg>
